<svg width="16" height="16" viewBox="0 0 16 16" fill="none" xmlns="http://www.w3.org/2000/svg">
<path d="M9.13337 13.3333H6.80004C6.33337 13.3333 5.93337 13.8667 6.20004 14.3333C6.60004 14.9333 7.2667 15.3333 8.00004 15.3333C8.73337 15.3333 9.40004 14.9333 9.73337 14.3333C10 13.8667 9.6667 13.3333 9.13337 13.3333Z" fill="#959595"/>
<path d="M14.5333 11.1333L14.2667 10.8C13.2 9.40001 12.6667 7.73335 12.6667 6.00001V5.53335C12.6667 3.13335 10.9333 1.00001 8.53334 0.733347C5.73334 0.400014 3.33334 2.60001 3.33334 5.33335V6.00001C3.33334 7.73335 2.80001 9.40001 1.73334 10.8L1.46668 11.1333C1.33334 11.2667 1.26668 11.5333 1.33334 11.6667C1.53334 12.2667 2.06668 12.6667 2.66668 12.6667H13.3333C13.9333 12.6667 14.4667 12.2667 14.6 11.6667C14.6667 11.4667 14.6 11.2667 14.5333 11.1333Z" fill="#959595"/>
<circle cx="12" cy="2" r="1.9" fill="#FB1818" stroke="white" stroke-width="0.2"/>
</svg>
